<svg viewBox="0 0 100 100" xmlns="http://www.w3.org/2000/svg" id="Cinema-Theater-Movie--Streamline-Ux">
  <desc>
    Cinema Theater Movie Streamline Illustration: https://streamlinehq.com
  </desc>
  <path d="M9.405 50a40 40 0 1 0 80 0 40 40 0 1 0 -80 0Z" fill="#d9edff" stroke-width="1"></path>
  <path d="M83.2 10.235a2.988 2.988 0 0 1 3.768 1.913l1.332 4.085a0.8 0.8 0 0 1 -0.512 1.01L47.342 30.459l-3.97 -7.222Z" fill="#ffffff" stroke="#020064" stroke-linecap="round" stroke-linejoin="round" stroke-width="1"></path>
  <path d="m54.845 19.491 -5.318 1.736 7.077 6.206 5.317 -1.737 -7.076 -6.205z" fill="#b0d9ff" stroke="#020064" stroke-linecap="round" stroke-linejoin="round" stroke-width="1"></path>
  <path d="m66.26 15.765 -5.318 1.736 7.065 6.206 5.327 -1.739 -7.074 -6.203z" fill="#b0d9ff" stroke="#020064" stroke-linecap="round" stroke-linejoin="round" stroke-width="1"></path>
  <path d="m77.675 12.038 -5.327 1.739 7.073 6.202 5.325 -1.742 -7.071 -6.199z" fill="#b0d9ff" stroke="#020064" stroke-linecap="round" stroke-linejoin="round" stroke-width="1"></path>
  <path d="M90.6 61.861a3.031 3.031 0 0 1 -3.031 3.031H40.8a3.031 3.031 0 0 1 -3.032 -3.031V37.678H90.6Z" fill="#b0d9ff" stroke-width="1"></path>
  <path d="m37.768 59.109 21.431 -21.431 -21.431 0 0 21.431z" fill="#ffffff" stroke-width="1"></path>
  <path d="M90.6 61.861a3.031 3.031 0 0 1 -3.031 3.031H40.8a3.031 3.031 0 0 1 -3.032 -3.031V37.678H90.6Z" fill="none" stroke="#020064" stroke-linecap="round" stroke-linejoin="round" stroke-width="1"></path>
  <path d="m49.774 29.674 4 8H90.6v-7.2a0.8 0.8 0 0 0 -0.8 -0.8Z" fill="#ffffff" stroke="#020064" stroke-linecap="round" stroke-linejoin="round" stroke-width="1"></path>
  <path d="M53.776 37.678H37.768V24.871a3.2 3.2 0 0 1 3.2 -3.2h3.979a1.334 1.334 0 0 1 1.193 0.737Z" fill="#ffffff" stroke="#020064" stroke-linecap="round" stroke-linejoin="round" stroke-width="1"></path>
  <path d="m43.371 45.682 41.621 0" fill="none" stroke="#020064" stroke-linecap="round" stroke-linejoin="round" stroke-width="1"></path>
  <path d="m63.381 45.682 0 16.008" fill="none" stroke="#020064" stroke-linecap="round" stroke-linejoin="round" stroke-width="1"></path>
  <path d="m58.579 29.674 5.603 0 -4.803 8.004 -5.603 0 4.803 -8.004z" fill="#b0d9ff" stroke="#020064" stroke-linecap="round" stroke-linejoin="round" stroke-width="1"></path>
  <path d="m70.585 29.674 5.603 0 -4.803 8.004 -5.603 0 4.803 -8.004z" fill="#b0d9ff" stroke="#020064" stroke-linecap="round" stroke-linejoin="round" stroke-width="1"></path>
  <path d="m82.591 29.674 5.603 0 -4.802 8.004 -5.603 0 4.802 -8.004z" fill="#b0d9ff" stroke="#020064" stroke-linecap="round" stroke-linejoin="round" stroke-width="1"></path>
  <path d="M41.37 32.863a1.214 1.214 0 1 0 1.213 1.212 1.214 1.214 0 0 0 -1.213 -1.212Z" fill="#b0d9ff" stroke-width="1"></path>
  <path d="M41.37 24.059a1.213 1.213 0 1 0 1.213 1.212 1.215 1.215 0 0 0 -1.213 -1.212Z" fill="#b0d9ff" stroke-width="1"></path>
  <path d="M47.773 32.864a1.213 1.213 0 1 0 1.213 1.211 1.214 1.214 0 0 0 -1.213 -1.211Z" fill="#b0d9ff" stroke-width="1"></path>
  <path d="M19.953 83.953a29.712 2.769 0 1 0 59.424 0 29.712 2.769 0 1 0 -59.424 0Z" fill="#b0d9ff" stroke-width="1"></path>
  <path d="M24.83 54.938a1.368 1.368 0 0 0 0.406 0.024 1.341 1.341 0 0 0 1.207 -1.462l-1.13 -12A6.058 6.058 0 0 0 16 37.069l-3.926 2.541a1.339 1.339 0 0 0 1.457 2.247l3.921 -2.541a3.381 3.381 0 0 1 5.2 2.461l1.127 11.977a1.339 1.339 0 0 0 1.051 1.184Z" fill="#ffffff" stroke="#020064" stroke-linecap="round" stroke-linejoin="round" stroke-width="1"></path>
  <path d="m25.321 41.589 -2.626 0.667" fill="none" stroke="#020064" stroke-linecap="round" stroke-linejoin="round" stroke-width="1"></path>
  <path d="m23.34 37.648 -1.886 1.886" fill="none" stroke="#020064" stroke-linecap="round" stroke-linejoin="round" stroke-width="1"></path>
  <path d="m18.758 36.115 0.665 2.66" fill="none" stroke="#020064" stroke-linecap="round" stroke-linejoin="round" stroke-width="1"></path>
  <path d="M19.871 81a2.426 2.426 0 0 0 2.4 2.086h12.571l4.686 -33.472h-24.1Z" fill="#b0d9ff" stroke-width="1"></path>
  <path d="M19.871 81a2.426 2.426 0 0 0 2.4 2.086h12.571l4.686 -33.472h-24.1Z" fill="none" stroke="#020064" stroke-linecap="round" stroke-linejoin="round" stroke-width="1"></path>
  <path d="M27.479 83.084c-11.046 -10.711 0 -13.054 0 -21.422a14.148 14.148 0 0 0 -6.695 -12.05h8.033s2.683 3.682 2.683 12.05 -9.712 9.874 -4.021 21.422Z" fill="#ffffff" stroke="#020064" stroke-linecap="round" stroke-linejoin="round" stroke-width="1"></path>
  <path d="M39.655 49.612H15.3a1.213 1.213 0 0 1 -1.21 -1.212v-0.378a2.426 2.426 0 0 1 2.425 -2.422h21.927a2.426 2.426 0 0 1 2.425 2.426v0.374a1.213 1.213 0 0 1 -1.212 1.212Z" fill="#ffffff" stroke="#020064" stroke-linecap="round" stroke-linejoin="round" stroke-width="1"></path>
  <path d="M51.629 66.712a5.154 5.154 0 0 0 0.6 -10.274 3.944 3.944 0 0 0 -5.172 -3.474 3.033 3.033 0 0 0 -6.01 0 3.944 3.944 0 0 0 -5.172 3.474 5.154 5.154 0 0 0 0.6 10.274Z" fill="#ffffff" stroke-width="1"></path>
  <path d="M51.629 66.712a5.154 5.154 0 0 0 0.6 -10.274 3.944 3.944 0 0 0 -5.172 -3.474 3.033 3.033 0 0 0 -6.01 0 3.944 3.944 0 0 0 -5.172 3.474 5.154 5.154 0 0 0 0.6 10.274Z" fill="none" stroke="#020064" stroke-linecap="round" stroke-linejoin="round" stroke-width="1"></path>
  <path d="M55.631 81.975a3.638 3.638 0 0 1 -3.615 3.231H36.082a3.638 3.638 0 0 1 -3.615 -3.231l-1.91 -16.947a1.212 1.212 0 0 1 1.206 -1.348h24.572a1.211 1.211 0 0 1 1.2 1.348Z" fill="#b0d9ff" stroke-width="1"></path>
  <path d="m41.32 63.68 0.607 21.526 -4.851 0L35.56 63.68l5.76 0z" fill="#ffffff" stroke-width="1"></path>
  <path d="m46.778 63.68 -0.607 21.526 4.851 0 1.516 -21.526 -5.76 0z" fill="#ffffff" stroke-width="1"></path>
  <path d="M55.631 81.975a3.638 3.638 0 0 1 -3.615 3.231H36.082a3.638 3.638 0 0 1 -3.615 -3.231l-1.91 -16.947a1.212 1.212 0 0 1 1.206 -1.348h24.572a1.211 1.211 0 0 1 1.2 1.348Z" fill="none" stroke="#020064" stroke-linecap="round" stroke-linejoin="round" stroke-width="1"></path>
  <path d="m41.32 63.68 0.607 21.526 -4.851 0L35.56 63.68l5.76 0z" fill="none" stroke="#020064" stroke-linecap="round" stroke-linejoin="round" stroke-width="1"></path>
  <path d="m46.778 63.68 -0.607 21.526 4.851 0 1.516 -21.526 -5.76 0z" fill="none" stroke="#020064" stroke-linecap="round" stroke-linejoin="round" stroke-width="1"></path>
</svg>