<svg viewBox="0 0 100 100" xmlns="http://www.w3.org/2000/svg" id="Film-Video--Streamline-Ux">
  <desc>
    Film Video Streamline Illustration: https://streamlinehq.com
  </desc>
  <path d="M41.8 51.257a13.384 13.384 0 0 1 9.966 0.177" fill="none" stroke="#020064" stroke-linecap="round" stroke-width="1"></path>
  <path d="M34.292 68.933a13.378 13.378 0 0 1 -0.031 -10.364" fill="none" stroke="#020064" stroke-linecap="round" stroke-width="1"></path>
  <path d="M51.737 76.007a13.379 13.379 0 0 1 -10.334 0" fill="none" stroke="#020064" stroke-linecap="round" stroke-width="1"></path>
  <path d="M58.87 58.57a13.374 13.374 0 0 1 -0.031 10.358" fill="none" stroke="#020064" stroke-linecap="round" stroke-width="1"></path>
  <path d="M42.761 63.714a3.81 3.81 0 1 0 7.62 0 3.81 3.81 0 1 0 -7.62 0Z" fill="none" stroke="#020064" stroke-linecap="round" stroke-linejoin="round" stroke-width="1"></path>
  <path d="m32.01 69.9 4.7 -1.991a1.262 1.262 0 0 0 0.716 -1.523 9.513 9.513 0 0 1 -0.018 -5.275 1.264 1.264 0 0 0 -0.719 -1.517L31.987 57.6a1.282 1.282 0 0 0 -1.716 0.791 17.214 17.214 0 0 0 0.029 10.721 1.284 1.284 0 0 0 1.71 0.788Z" fill="none" stroke="#020064" stroke-linecap="round" stroke-linejoin="round" stroke-width="1"></path>
  <path d="m40.428 49.194 1.989 4.7a1.263 1.263 0 0 0 1.523 0.718 9.492 9.492 0 0 1 5.276 -0.018 1.264 1.264 0 0 0 1.517 -0.72l1.991 -4.706a1.28 1.28 0 0 0 -0.792 -1.713 17.182 17.182 0 0 0 -10.717 0.024 1.281 1.281 0 0 0 -0.787 1.715Z" fill="none" stroke="#020064" stroke-linecap="round" stroke-linejoin="round" stroke-width="1"></path>
  <path d="M62.443 69.73a1.262 1.262 0 0 1 -1.283 0.178l-2.323 -0.978 -2.388 -1.016a1.265 1.265 0 0 1 -0.724 -1.511 9.257 9.257 0 0 0 0.369 -2.6 9.365 9.365 0 0 0 -0.381 -2.68 1.279 1.279 0 0 1 0.711 -1.524l2.451 -1.028 2.26 -0.953a1.252 1.252 0 0 1 1.308 0.2" fill="none" stroke="#020064" stroke-linecap="round" stroke-linejoin="round" stroke-width="1"></path>
  <path d="m52.714 78.317 -1.989 -4.7A1.262 1.262 0 0 0 49.2 72.9a9.536 9.536 0 0 1 -5.278 0.017 1.263 1.263 0 0 0 -1.516 0.72l-1.991 4.7a1.28 1.28 0 0 0 0.792 1.714 17.2 17.2 0 0 0 10.716 -0.024 1.282 1.282 0 0 0 0.791 -1.71Z" fill="none" stroke="#020064" stroke-linecap="round" stroke-linejoin="round" stroke-width="1"></path>
  <path d="M46.571 86.571a22.857 22.857 0 0 1 0 -45.714" fill="none" stroke="#020064" stroke-linecap="round" stroke-linejoin="round" stroke-width="1"></path>
  <path d="m70.19 21.809 0 -3.047" fill="none" stroke="#020064" stroke-linecap="round" stroke-linejoin="round" stroke-width="1"></path>
  <path d="m68.666 20.285 3.048 0" fill="none" stroke="#020064" stroke-linecap="round" stroke-linejoin="round" stroke-width="1"></path>
  <path d="m27.524 21.809 0 -3.047" fill="none" stroke="#020064" stroke-linecap="round" stroke-linejoin="round" stroke-width="1"></path>
  <path d="m25.999 20.285 3.049 0" fill="none" stroke="#020064" stroke-linecap="round" stroke-linejoin="round" stroke-width="1"></path>
  <path d="m11.523 48.476 0 -3.047" fill="none" stroke="#020064" stroke-linecap="round" stroke-linejoin="round" stroke-width="1"></path>
  <path d="m10 46.952 3.047 0" fill="none" stroke="#020064" stroke-linecap="round" stroke-linejoin="round" stroke-width="1"></path>
  <path d="m58.762 37.81 0 -6.096" fill="none" stroke="#020064" stroke-linecap="round" stroke-linejoin="round" stroke-width="1"></path>
  <path d="m55.714 34.762 6.095 0" fill="none" stroke="#020064" stroke-linecap="round" stroke-linejoin="round" stroke-width="1"></path>
  <path d="m65.619 79.715 12.19 0" fill="none" stroke="#020064" stroke-linecap="round" stroke-linejoin="round" stroke-width="1"></path>
  <path d="m65.619 69.048 12.19 0" fill="none" stroke="#020064" stroke-linecap="round" stroke-linejoin="round" stroke-width="1"></path>
  <path d="m65.619 58.38 12.19 0" fill="none" stroke="#020064" stroke-linecap="round" stroke-linejoin="round" stroke-width="1"></path>
  <path d="M83.9 50.761a6.1 6.1 0 0 0 -6.095 6.1v3.809H88.73A1.27 1.27 0 0 0 90 59.4v-2.542a6.1 6.1 0 0 0 -6.1 -6.097Z" fill="none" stroke="#020064" stroke-linecap="round" stroke-linejoin="round" stroke-width="1"></path>
  <path d="M77.809 50.761h-6.095a6.1 6.1 0 0 0 -6.095 6.1V82H54.7a1.271 1.271 0 0 0 -1.27 1.27v0.254c0 3.366 2.729 4.571 6.1 4.571h12.19A6.1 6.1 0 0 0 77.809 82V56.858a6.1 6.1 0 0 1 6.095 -6.1Z" fill="none" stroke="#020064" stroke-linecap="round" stroke-linejoin="round" stroke-width="1"></path>
  <path d="M65.619 82H54.7a1.271 1.271 0 0 0 -1.27 1.27v0.254c0 3.366 2.729 4.571 6.1 4.571h12.19A6.1 6.1 0 0 1 65.619 82Z" fill="none" stroke="#020064" stroke-linecap="round" stroke-linejoin="round" stroke-width="1"></path>
  <path d="M44.8 12.129A1.9 1.9 0 0 0 42 13.81v16a1.905 1.905 0 0 0 2.8 1.682l15 -8a1.9 1.9 0 0 0 0 -3.362Z" fill="none" stroke="#020064" stroke-linecap="round" stroke-linejoin="round" stroke-width="1"></path>
  <path d="M76.92 42.381h-3.047a0.635 0.635 0 0 1 -0.635 -0.635v-9.524a0.635 0.635 0 0 1 0.635 -0.635h3.047a0.635 0.635 0 0 1 0.635 0.635v9.524a0.635 0.635 0 0 1 -0.635 0.635Z" fill="none" stroke="#020064" stroke-linecap="round" stroke-linejoin="round" stroke-width="1"></path>
  <path d="M85.556 42.381h-3.049a0.634 0.634 0 0 1 -0.634 -0.635v-9.524a0.634 0.634 0 0 1 0.634 -0.635h3.049a0.634 0.634 0 0 1 0.634 0.635v9.524a0.634 0.634 0 0 1 -0.634 0.635Z" fill="none" stroke="#020064" stroke-linecap="round" stroke-linejoin="round" stroke-width="1"></path>
  <path d="M26.557 38.043a4.092 4.092 0 1 1 -4.33 -3.838 4.092 4.092 0 0 1 4.33 3.838Z" fill="none" stroke="#020064" stroke-linecap="round" stroke-linejoin="round" stroke-width="1"></path>
  <path d="M50.7 86.187a22.076 22.076 0 0 1 -4.127 0.381" fill="none" stroke="#020064" stroke-linecap="round" stroke-linejoin="round" stroke-width="1"></path>
  <path d="M53.846 85.387c-0.013 0 -0.038 0.013 -0.051 0.013" fill="none" stroke="#020064" stroke-linecap="round" stroke-linejoin="round" stroke-width="1"></path>
  <path d="M46.57 40.854a22.8 22.8 0 0 1 18.54 9.5" fill="none" stroke="#020064" stroke-linecap="round" stroke-linejoin="round" stroke-width="1"></path>
</svg>