<svg viewBox="0 0 100 100" xmlns="http://www.w3.org/2000/svg" id="Film-Video--Streamline-Ux">
  <desc>
    Film Video Streamline Illustration: https://streamlinehq.com
  </desc>
  <path d="M9.903 49.603a40 40 0 1 0 80 0 40 40 0 1 0 -80 0Z" fill="#d9edff" stroke-width="1"></path>
  <path d="M25.227 80.045a24.067 2.006 0 1 0 48.134 0 24.067 2.006 0 1 0 -48.134 0Z" fill="#b0d9ff" stroke-width="1"></path>
  <path d="M26.491 47.609a14.039 14.039 0 1 0 28.078 0 14.039 14.039 0 1 0 -28.078 0Z" fill="#b0d9ff" stroke="#020064" stroke-width="1"></path>
  <path d="M16.469 47.609a24.067 24.067 0 1 0 24.067 -24.067 24.067 24.067 0 0 0 -24.067 24.067ZM47 62.985a1.349 1.349 0 0 1 -0.829 1.8 18.107 18.107 0 0 1 -11.284 0.025 1.348 1.348 0 0 1 -0.833 -1.8l2.1 -4.954a1.331 1.331 0 0 1 1.6 -0.758 10.025 10.025 0 0 0 5.555 -0.019 1.328 1.328 0 0 1 1.6 0.755ZM58.587 47.7a18.007 18.007 0 0 1 -0.889 5.6 1.349 1.349 0 0 1 -1.8 0.834l-4.955 -2.1a1.329 1.329 0 0 1 -0.757 -1.6 10.013 10.013 0 0 0 -0.02 -5.555 1.331 1.331 0 0 1 0.755 -1.6l4.953 -2.1a1.349 1.349 0 0 1 1.8 0.829 18.017 18.017 0 0 1 0.913 5.692Zm-28.452 -4.429a1.331 1.331 0 0 1 0.757 1.6 10 10 0 0 0 0.019 5.555 1.329 1.329 0 0 1 -0.755 1.6L25.2 54.121a1.349 1.349 0 0 1 -1.8 -0.829 18.12 18.12 0 0 1 -0.026 -11.285 1.349 1.349 0 0 1 1.8 -0.833ZM47.015 32.3l-2.1 4.955a1.33 1.33 0 0 1 -1.6 0.757 10 10 0 0 0 -5.554 0.019 1.329 1.329 0 0 1 -1.6 -0.755l-2.093 -4.956a1.349 1.349 0 0 1 0.829 -1.8 18.1 18.1 0 0 1 11.284 -0.026 1.349 1.349 0 0 1 0.834 1.806Z" fill="#ffffff" stroke-width="1"></path>
  <path d="M36.525 47.609a4.011 4.011 0 1 0 8.022 0 4.011 4.011 0 1 0 -8.022 0Z" fill="#b0d9ff" stroke-width="1"></path>
  <path d="M36.525 47.609a4.011 4.011 0 1 0 8.022 0 4.011 4.011 0 1 0 -8.022 0Z" fill="none" stroke="#020064" stroke-linecap="round" stroke-linejoin="round" stroke-width="1"></path>
  <path d="m25.2 54.121 4.952 -2.095a1.329 1.329 0 0 0 0.755 -1.6 10.013 10.013 0 0 1 -0.02 -5.555 1.329 1.329 0 0 0 -0.757 -1.6l-4.955 -2.1a1.349 1.349 0 0 0 -1.8 0.833 18.12 18.12 0 0 0 0.025 11.288 1.349 1.349 0 0 0 1.8 0.829Z" fill="none" stroke="#020064" stroke-linecap="round" stroke-linejoin="round" stroke-width="1"></path>
  <path d="m34.068 32.32 2.094 4.952a1.331 1.331 0 0 0 1.605 0.755 10 10 0 0 1 5.554 -0.019 1.33 1.33 0 0 0 1.6 -0.757l2.1 -4.955a1.349 1.349 0 0 0 -0.834 -1.8 18.1 18.1 0 0 0 -11.284 0.026 1.349 1.349 0 0 0 -0.835 1.798Z" fill="none" stroke="#020064" stroke-linecap="round" stroke-linejoin="round" stroke-width="1"></path>
  <path d="m55.869 41.184 -4.953 2.1a1.331 1.331 0 0 0 -0.755 1.6 10.013 10.013 0 0 1 0.02 5.555 1.331 1.331 0 0 0 0.757 1.6l4.955 2.1a1.349 1.349 0 0 0 1.8 -0.834 18.1 18.1 0 0 0 -0.026 -11.285 1.349 1.349 0 0 0 -1.798 -0.836Z" fill="none" stroke="#020064" stroke-linecap="round" stroke-linejoin="round" stroke-width="1"></path>
  <path d="m47 62.985 -2.09 -4.951a1.329 1.329 0 0 0 -1.6 -0.755 10.041 10.041 0 0 1 -5.556 0.018 1.331 1.331 0 0 0 -1.6 0.758l-2.1 4.954a1.348 1.348 0 0 0 0.833 1.8 18.107 18.107 0 0 0 11.284 -0.025A1.349 1.349 0 0 0 47 62.985Z" fill="none" stroke="#020064" stroke-linecap="round" stroke-linejoin="round" stroke-width="1"></path>
  <path d="M16.469 47.609a24.067 24.067 0 1 0 48.134 0 24.067 24.067 0 1 0 -48.134 0Z" fill="none" stroke="#020064" stroke-linecap="round" stroke-linejoin="round" stroke-width="1"></path>
  <path d="M73.428 33.971H67.01a6.418 6.418 0 0 0 -6.418 6.419v26.473h-11.5a1.338 1.338 0 0 0 -1.336 1.337v0.268c0 3.544 2.873 4.813 6.419 4.813H67.01a6.419 6.419 0 0 0 6.418 -6.418V40.39a6.418 6.418 0 0 1 6.418 -6.419Z" fill="#ffffff" stroke-width="1"></path>
  <path d="M60.592 66.863h-11.5a1.338 1.338 0 0 0 -1.336 1.337v0.268c0 3.544 2.873 4.813 6.419 4.813H67.01a6.418 6.418 0 0 1 -6.418 -6.418Z" fill="#ffffff" stroke-width="1"></path>
  <path d="m60.592 64.457 12.836 0" fill="none" stroke="#020064" stroke-linecap="round" stroke-linejoin="round" stroke-width="1"></path>
  <path d="m60.592 53.225 12.836 0" fill="none" stroke="#020064" stroke-linecap="round" stroke-linejoin="round" stroke-width="1"></path>
  <path d="m60.592 41.993 12.836 0" fill="none" stroke="#020064" stroke-linecap="round" stroke-linejoin="round" stroke-width="1"></path>
  <path d="M79.846 33.971a6.418 6.418 0 0 0 -6.418 6.419v4.01h11.5a1.337 1.337 0 0 0 1.337 -1.337V40.39a6.419 6.419 0 0 0 -6.419 -6.419Z" fill="#b0d9ff" stroke-width="1"></path>
  <path d="M79.846 33.971a6.418 6.418 0 0 0 -6.418 6.419v4.01h11.5a1.337 1.337 0 0 0 1.337 -1.337V40.39a6.419 6.419 0 0 0 -6.419 -6.419Z" fill="none" stroke="#020064" stroke-linecap="round" stroke-linejoin="round" stroke-width="1"></path>
  <path d="M73.428 33.971H67.01a6.418 6.418 0 0 0 -6.418 6.419v26.473h-11.5a1.338 1.338 0 0 0 -1.336 1.337v0.268c0 3.544 2.873 4.813 6.419 4.813H67.01a6.419 6.419 0 0 0 6.418 -6.418V40.39a6.418 6.418 0 0 1 6.418 -6.419Z" fill="none" stroke="#020064" stroke-linecap="round" stroke-linejoin="round" stroke-width="1"></path>
  <path d="M60.592 66.863h-11.5a1.338 1.338 0 0 0 -1.336 1.337v0.268c0 3.544 2.873 4.813 6.419 4.813H67.01a6.418 6.418 0 0 1 -6.418 -6.418Z" fill="none" stroke="#020064" stroke-linecap="round" stroke-linejoin="round" stroke-width="1"></path>
</svg>